<svg width="495" height="220" viewBox="0 0 495 220" xmlns="http://www.w3.org/2000/svg"><rect width="495" height="220" rx="10" fill="#161b22" stroke="#30363d" stroke-width="1"/><text x="247" y="17" text-anchor="middle" font-family="system-ui,sans-serif" font-size="14" font-weight="600" fill="#58a6ff">Most Used Languages</text><path d="M 105.00 33.00 A 82 82 0 0 1 144.22 187.01 L 129.87 160.67 A 52 52 0 0 0 105.00 63.00 Z" fill="#b07219" stroke="#161b22" stroke-width="2.5"/><path d="M 144.22 187.01 A 82 82 0 0 1 24.29 100.52 L 53.82 105.82 A 52 52 0 0 0 129.87 160.67 Z" fill="#178600" stroke="#161b22" stroke-width="2.5"/><path d="M 24.29 100.52 A 82 82 0 0 1 42.45 61.98 L 65.33 81.38 A 52 52 0 0 0 53.82 105.82 Z" fill="#e34c26" stroke="#161b22" stroke-width="2.5"/><path d="M 42.45 61.98 A 82 82 0 0 1 56.16 49.13 L 74.03 73.23 A 52 52 0 0 0 65.33 81.38 Z" fill="#4F5D95" stroke="#161b22" stroke-width="2.5"/><path d="M 56.16 49.13 A 82 82 0 0 1 66.89 42.39 L 80.83 68.96 A 52 52 0 0 0 74.03 73.23 Z" fill="#f1e05a" stroke="#161b22" stroke-width="2.5"/><path d="M 66.89 42.39 A 82 82 0 0 1 76.07 38.27 L 86.66 66.34 A 52 52 0 0 0 80.83 68.96 Z" fill="#00ADD8" stroke="#161b22" stroke-width="2.5"/><path d="M 76.07 38.27 A 82 82 0 0 1 81.98 36.30 L 90.40 65.09 A 52 52 0 0 0 86.66 66.34 Z" fill="#3572A5" stroke="#161b22" stroke-width="2.5"/><path d="M 81.98 36.30 A 82 82 0 0 1 87.89 34.81 L 94.15 64.15 A 52 52 0 0 0 90.40 65.09 Z" fill="#f34b7d" stroke="#161b22" stroke-width="2.5"/><path d="M 87.89 34.81 A 82 82 0 0 1 105.00 33.00 L 105.00 63.00 A 52 52 0 0 0 94.15 64.15 Z" fill="#8b949e" stroke="#161b22" stroke-width="2.5"/><text x="105" y="109" text-anchor="middle" font-family="system-ui,sans-serif" font-size="12" fill="#8b949e">total</text><text x="105" y="127" text-anchor="middle" font-family="system-ui,sans-serif" font-size="13" font-weight="600" fill="#e6edf3">902.3 KB</text><circle cx="221" cy="36" r="6" fill="#b07219"/><text x="233" y="39" font-family="system-ui,sans-serif" font-size="13" fill="#e6edf3">Java</text><text x="233" y="54" font-family="system-ui,sans-serif" font-size="11" fill="#8b949e">42.1%  ·  379.5 KB</text><circle cx="221" cy="72" r="6" fill="#178600"/><text x="233" y="75" font-family="system-ui,sans-serif" font-size="13" fill="#e6edf3">C#</text><text x="233" y="90" font-family="system-ui,sans-serif" font-size="11" fill="#8b949e">35.8%  ·  322.7 KB</text><circle cx="221" cy="108" r="6" fill="#e34c26"/><text x="233" y="111" font-family="system-ui,sans-serif" font-size="13" fill="#e6edf3">HTML</text><text x="233" y="126" font-family="system-ui,sans-serif" font-size="11" fill="#8b949e">8.4%  ·  75.5 KB</text><circle cx="221" cy="144" r="6" fill="#4F5D95"/><text x="233" y="147" font-family="system-ui,sans-serif" font-size="13" fill="#e6edf3">PHP</text><text x="233" y="162" font-family="system-ui,sans-serif" font-size="11" fill="#8b949e">3.7%  ·  33.0 KB</text><circle cx="221" cy="180" r="6" fill="#f1e05a"/><text x="233" y="183" font-family="system-ui,sans-serif" font-size="13" fill="#e6edf3">JavaScript</text><text x="233" y="198" font-family="system-ui,sans-serif" font-size="11" fill="#8b949e">2.5%  ·  22.2 KB</text><circle cx="361" cy="36" r="6" fill="#00ADD8"/><text x="373" y="39" font-family="system-ui,sans-serif" font-size="13" fill="#e6edf3">Go</text><text x="373" y="54" font-family="system-ui,sans-serif" font-size="11" fill="#8b949e">2.0%  ·  17.6 KB</text><circle cx="361" cy="72" r="6" fill="#3572A5"/><text x="373" y="75" font-family="system-ui,sans-serif" font-size="13" fill="#e6edf3">Python</text><text x="373" y="90" font-family="system-ui,sans-serif" font-size="11" fill="#8b949e">1.2%  ·  10.9 KB</text><circle cx="361" cy="108" r="6" fill="#f34b7d"/><text x="373" y="111" font-family="system-ui,sans-serif" font-size="13" fill="#e6edf3">C++</text><text x="373" y="126" font-family="system-ui,sans-serif" font-size="11" fill="#8b949e">1.2%  ·  10.7 KB</text><circle cx="361" cy="144" r="6" fill="#8b949e"/><text x="373" y="147" font-family="system-ui,sans-serif" font-size="13" fill="#e6edf3">Other</text><text x="373" y="162" font-family="system-ui,sans-serif" font-size="11" fill="#8b949e">3.3%  ·  30.2 KB</text></svg>